<?xml version="1.0" encoding="utf-8"?>
<!-- Generator: Adobe Illustrator 19.0.0, SVG Export Plug-In . SVG Version: 6.00 Build 0)  -->
<svg version="1.1" id="Layer_3" xmlns="http://www.w3.org/2000/svg" xmlns:xlink="http://www.w3.org/1999/xlink" x="0px" y="0px"
	 width="120px" height="120px" viewBox="-193 284 225 225" style="enable-background:new -193 284 225 225;" xml:space="preserve">
<style type="text/css">
	.st0{fill:#FA8E01;}
	.st1{fill:none;stroke:#FA8E01;stroke-width:18.9;}
</style>
<path class="st0" d="M-80.5,322.3c-41,0-74.2,33.2-74.2,74.2s33.2,74.2,74.2,74.2s74.2-33.2,74.2-74.2S-39.5,322.3-80.5,322.3z
	 M-91.4,415.1c0,0.4-0.4,0.4-0.5,0.4c-0.4,0-16.5,0-16.5,0c-0.7,0-0.9-0.4-0.9-0.8s0-31.5,0-31.5c-0.1-1.8-3.7-1.8-3.8,0V415
	c-0.1,0.3-0.4,0.5-0.9,0.5h-16.6c-0.5,0-0.8-0.3-0.8-0.7v-44.7c0-0.3,0.3-0.7,1-0.7h14.6c0.3,0,0.5,0.2,0.5,0.2
	c0.2,0.2,0.5,0.6,0.5,0.6c0.1,0.2,0.4,0.7,0.4,0.7c0.1,0.3,0.4,0.7,0.4,0.7c0.1,0.2,0.3,0.5,0.3,0.5c0.4,0.7,0.4,0.7,1.3,0
	c2.6-2,3.7-2.3,7.6-2.7c4.4-0.4,12.7,1.1,13.5,7.3L-91.4,415.1z M-25.3,416.8h-16.3c-0.6-0.1-0.9-0.3-1-0.8v-31.2
	c0-1.9-3.7-2.2-3.8,0V416c0,0.5-0.6,0.7-0.9,0.7s-16.7,0-16.7,0c-0.7,0-0.9-0.4-0.9-0.8s0-31.5,0-31.5c-0.2-1.8-3.7-1.8-3.8,0v31.7
	c-0.1,0.3-0.4,0.5-0.9,0.5h-16.6c-0.5,0-0.8-0.3-0.8-0.7v-44.7c0-0.3,0.3-0.7,1-0.7h15.7c0.3,0,0.5,0.2,0.5,0.2
	c0.2,0.2,0.5,0.6,0.5,0.6c0.1,0.2,0.4,0.7,0.4,0.7c0.1,0.3,0.4,0.7,0.4,0.7c0.1,0.2,0.3,0.5,0.3,0.5c0.3,0.3,0.4,0.9,1.4,0.4
	c1-0.6,2.8-2.2,6.9-2.9c3.8-0.7,8.9,0.1,11.4,2.2c0.4,0.3,0.4,0.4,0.4,0.4c0.8,0.8,1.5,1,2.4,0.4c10.2-6.7,21-2.2,21.5,4.8V416
	C-24.5,416.5-24.8,416.7-25.3,416.8z"/>
<path class="st1" d="M-80.4,293.2c-57,0-103.2,46.2-103.2,103.3c0,57,46.2,103.3,103.2,103.3c57,0,103.2-46.2,103.2-103.3
	C22.8,339.5-23.4,293.2-80.4,293.2z"/>
</svg>
